<svg xmlns="http://www.w3.org/2000/svg" viewBox="0 0 5540 1460" width="1108" height="292" fill="none" role="img" aria-label="pulpie">
<style>.word{fill:#1A1A1A}@media (prefers-color-scheme:dark){.word{fill:#FFFFFF}}</style>
<g transform="translate(70,1090) scale(1,-1)">
<path transform="translate(0,0)" d="M524 56 76 267V392L524 603V488L234 354Q214 345 194.5 338.5Q175 332 164 330Q175 328 195.0 322.0Q215 316 234 307L524 173Z" fill="#1A1A1A" class="word"/>
<path transform="translate(600,0)" d="M77 -180V550H199V449Q214 501 253.0 530.5Q292 560 350 560Q403 560 443.5 534.0Q484 508 506.5 460.5Q529 413 529 350V201Q529 106 480.0 48.0Q431 -10 350 -10Q292 -10 252.5 20.0Q213 50 198 104L202 -26V-180ZM303 98Q351 98 377.5 124.0Q404 150 404 204V346Q404 400 377.5 426.0Q351 452 303 452Q255 452 228.5 423.0Q202 394 202 341V209Q202 156 228.5 127.0Q255 98 303 98Z" fill="#1A1A1A" class="word"/>
<path transform="translate(1200,0)" d="M300 -10Q195 -10 135.0 48.5Q75 107 75 208V550H200V209Q200 157 226.0 128.0Q252 99 300 99Q347 99 373.5 128.0Q400 157 400 209V550H525V208Q525 107 464.0 48.5Q403 -10 300 -10Z" fill="#1A1A1A" class="word"/>
<path transform="translate(1800,0)" d="M389 0Q307 0 257.5 49.0Q208 98 208 178V617H27V730H333V181Q333 150 350.5 131.5Q368 113 398 113H559V0Z" fill="#1A1A1A" class="word"/>
<path transform="translate(2400,0)" d="M77 -180V550H199V449Q214 501 253.0 530.5Q292 560 350 560Q403 560 443.5 534.0Q484 508 506.5 460.5Q529 413 529 350V201Q529 106 480.0 48.0Q431 -10 350 -10Q292 -10 252.5 20.0Q213 50 198 104L202 -26V-180ZM303 98Q351 98 377.5 124.0Q404 150 404 204V346Q404 400 377.5 426.0Q351 452 303 452Q255 452 228.5 423.0Q202 394 202 341V209Q202 156 228.5 127.0Q255 98 303 98Z" fill="#1A1A1A" class="word"/>
<path transform="translate(3000,0)" d="M76 0V113H264V437H96V550H389V113H558V0ZM318 642Q280 642 258.0 661.5Q236 681 236 714Q236 747 258.0 766.5Q280 786 318 786Q356 786 378.0 766.5Q400 747 400 714Q400 681 378.0 661.5Q356 642 318 642Z" fill="#1A1A1A" class="word"/>
<path transform="translate(3600,0)" d="M301 -10Q231 -10 179.0 17.0Q127 44 98.5 93.5Q70 143 70 210V340Q70 407 98.5 456.5Q127 506 179.0 533.0Q231 560 301 560Q370 560 421.5 533.0Q473 506 501.5 457.5Q530 409 530 344V244H190V206Q190 150 219.0 121.5Q248 93 301 93Q340 93 367.5 106.5Q395 120 400 146H524Q511 75 450.0 32.5Q389 -10 301 -10ZM190 344V325L410 326V345Q410 402 382.0 433.0Q354 464 301 464Q246 464 218.0 432.5Q190 401 190 344Z" fill="#1A1A1A" class="word"/>
<path transform="translate(4200,0)" d="M60 -110 410 830H540L190 -110Z" fill="#D64C2B"/>
<path transform="translate(4800,0)" d="M76 56V171L366 305Q386 314 405.5 320.0Q425 326 436 329Q425 331 405.0 337.0Q385 343 366 351L76 486V603L524 392V267Z" fill="#1A1A1A" class="word"/>
</g></svg>